<?xml version="1.0" standalone="no"?><!DOCTYPE svg PUBLIC "-//W3C//DTD SVG 1.1//EN" "http://www.w3.org/Graphics/SVG/1.1/DTD/svg11.dtd"><svg t="1675000348541" class="icon" viewBox="0 0 1024 1024" version="1.1" xmlns="http://www.w3.org/2000/svg" p-id="12155" xmlns:xlink="http://www.w3.org/1999/xlink" width="200" height="200"><path d="M512 42.666667c259.2 0 469.333333 210.133333 469.333333 469.333333s-210.133333 469.333333-469.333333 469.333333S42.666667 771.2 42.666667 512 252.8 42.666667 512 42.666667z m0 64C288.149333 106.666667 106.666667 288.149333 106.666667 512s181.482667 405.333333 405.333333 405.333333 405.333333-181.482667 405.333333-405.333333S735.850667 106.666667 512 106.666667z m34.133333 213.333333c4.693333 0 8.533333 3.84 8.533334 8.533333V469.333333h140.8c4.693333 0 8.533333 3.84 8.533333 8.533334v46.933333a8.533333 8.533333 0 0 1-8.533333 8.533333H554.666667v140.8a8.533333 8.533333 0 0 1-8.533334 8.533334h-46.933333a8.533333 8.533333 0 0 1-8.533333-8.533334V533.333333h-140.8a8.533333 8.533333 0 0 1-8.533334-8.533333v-46.933333c0-4.693333 3.84-8.533333 8.533334-8.533334H490.666667v-140.8c0-4.693333 3.84-8.533333 8.533333-8.533333h46.933333z" fill="#333333" p-id="12156"></path></svg>