<?xml version="1.0" standalone="no"?><!DOCTYPE svg PUBLIC "-//W3C//DTD SVG 1.1//EN" "http://www.w3.org/Graphics/SVG/1.1/DTD/svg11.dtd"><svg t="1675083618506" class="icon" viewBox="0 0 1024 1024" version="1.1" xmlns="http://www.w3.org/2000/svg" p-id="2433" xmlns:xlink="http://www.w3.org/1999/xlink" width="200" height="200"><path d="M792.726659 961.082018h-552.585347c-95.358835 0-172.938748-77.579913-172.938747-172.938747V237.290381c0-95.358835 77.579913-172.938748 172.938747-172.938747h317.224922c14.128789 0 25.582655 11.453866 25.582655 25.582655s-11.453866 25.582655-25.582655 25.582655h-317.224922c-67.146283 0-121.773438 54.627155-121.773437 121.773437V788.143271c0 67.146283 54.627155 121.773438 121.773437 121.773437h552.585347c67.146283 0 121.773438-54.627155 121.773438-121.773437V499.550457c0-14.128789 11.453866-25.582655 25.582655-25.582655s25.582655 11.453866 25.582655 25.582655v288.592814c0 95.357811-77.580936 172.938748-172.938748 172.938747z" fill="" p-id="2434"></path><path d="M480.620315 740.337475l-153.305594 0.713245c-14.128789 0-25.582655-11.453866-25.582655-25.582655V560.065715a25.579585 25.579585 0 0 1 7.419993-18.016328l503.46665-507.558852c9.788947-9.869788 25.667589-10.115382 35.756365-0.555655l151.258982 148.549268a25.582655 25.582655 0 0 1 0.714268 36.440957l-501.420037 513.699711a25.586748 25.586748 0 0 1-18.307972 7.712659zM352.898399 689.88541l116.944456-0.713245L945.595302 201.768353 831.338049 88.272439 352.898399 570.600653V689.88541z" fill="" p-id="2435"></path></svg>