<?xml version="1.0" standalone="no"?><!DOCTYPE svg PUBLIC "-//W3C//DTD SVG 1.1//EN" "http://www.w3.org/Graphics/SVG/1.1/DTD/svg11.dtd"><svg t="1676174424287" class="icon" viewBox="0 0 1024 1024" version="1.1" xmlns="http://www.w3.org/2000/svg" p-id="2324" xmlns:xlink="http://www.w3.org/1999/xlink" width="200" height="200"><path d="M143 462h800c27.6 0 50 22.4 50 50s-22.4 50-50 50H143c-27.6 0-50-22.4-50-50s22.4-50 50-50z" p-id="2325"></path><path d="M116.4 483.3l212.1 212.1c19.5 19.5 19.5 51.2 0 70.7s-51.2 19.5-70.7 0L45.6 554c-19.5-19.5-19.5-51.2 0-70.7 19.6-19.6 51.2-19.6 70.8 0z" p-id="2326"></path><path d="M328.5 328.6L116.4 540.7c-19.5 19.5-51.2 19.5-70.7 0s-19.5-51.2 0-70.7l212.1-212.1c19.5-19.5 51.2-19.5 70.7 0s19.5 51.2 0 70.7z" p-id="2327"></path></svg>