<?xml version="1.0" standalone="no"?><!DOCTYPE svg PUBLIC "-//W3C//DTD SVG 1.1//EN" "http://www.w3.org/Graphics/SVG/1.1/DTD/svg11.dtd"><svg t="1675172671867" class="icon" viewBox="0 0 1024 1024" version="1.1" xmlns="http://www.w3.org/2000/svg" p-id="5224" xmlns:xlink="http://www.w3.org/1999/xlink" width="200" height="200"><path d="M128 420.576v200.864h149.12l175.456 140.064V284.288l-169.792 136.288H128z m132.256-64l204.288-163.968a32 32 0 0 1 52.032 24.96v610.432a32 32 0 0 1-51.968 24.992l-209.92-167.552H96a32 32 0 0 1-32-32v-264.864a32 32 0 0 1 32-32h164.256zM752 458.656L870.4 300.8a32 32 0 1 1 51.2 38.4L792 512l129.6 172.8a32 32 0 0 1-51.2 38.4l-118.4-157.856-118.4 157.856a32 32 0 0 1-51.2-38.4l129.6-172.8-129.6-172.8a32 32 0 0 1 51.2-38.4l118.4 157.856z" fill="#000000" p-id="5225"></path></svg>