<?xml version="1.0" standalone="no"?><!DOCTYPE svg PUBLIC "-//W3C//DTD SVG 1.1//EN" "http://www.w3.org/Graphics/SVG/1.1/DTD/svg11.dtd"><svg t="1675171158136" class="icon" viewBox="0 0 1030 1024" version="1.1" xmlns="http://www.w3.org/2000/svg" p-id="4109" xmlns:xlink="http://www.w3.org/1999/xlink" width="201.171875" height="200"><path d="M512 0C229.26 0 0 229.239 0 512c0 282.783 229.239 512 512 512 282.783 0 512-229.217 512-512 0.021-282.761-229.196-512-512-512z m0 958.843C265.213 958.843 65.178 758.787 65.178 512S265.235 65.178 512 65.178c246.83 0 446.843 200.035 446.843 446.822C958.864 758.787 758.83 958.843 512 958.843z" p-id="4110"></path><path d="M365.102 328.528h85.705v385.67h-85.705v-385.67zM536.512 328.528h107.13v385.67h-107.13v-385.67z" p-id="4111"></path></svg>