<?xml version="1.0" standalone="no"?><!DOCTYPE svg PUBLIC "-//W3C//DTD SVG 1.1//EN" "http://www.w3.org/Graphics/SVG/1.1/DTD/svg11.dtd"><svg t="1682686878595" class="icon" viewBox="0 0 1024 1024" version="1.1" xmlns="http://www.w3.org/2000/svg" p-id="5270" xmlns:xlink="http://www.w3.org/1999/xlink" width="200" height="200"><path d="M0 469.33h469.33V0H0v469.33z m85.33-384H384V384H85.33V85.33zM0 1024h469.33V554.67H0V1024z m85.33-384H384v298.67H85.33V640zM1024 234.67C1024 105.27 918.73 0 789.33 0S554.67 105.27 554.67 234.67v234.67h234.67C918.73 469.33 1024 364.06 1024 234.67z m-384 0c0-82.34 66.99-149.33 149.33-149.33s149.33 66.99 149.33 149.33S871.68 384 789.33 384H640V234.67zM554.67 1024H1024V554.67H554.67V1024zM640 640h298.67v298.67H640V640z" fill="#333333" p-id="5271"></path></svg>