<?xml version="1.0" standalone="no"?><!DOCTYPE svg PUBLIC "-//W3C//DTD SVG 1.1//EN" "http://www.w3.org/Graphics/SVG/1.1/DTD/svg11.dtd"><svg t="1675340272869" class="icon" viewBox="0 0 1024 1024" version="1.1" xmlns="http://www.w3.org/2000/svg" p-id="5004" xmlns:xlink="http://www.w3.org/1999/xlink" width="200" height="200"><path d="M863.98 340.9c-0.6 75.91-18.98 149.97-54.64 220.13-8.01 15.75-1.73 35.02 14.03 43.03 15.75 8 35.02 1.73 43.03-14.03 40.18-79.07 60.9-162.71 61.58-248.62 0.26-32.75-5.97-64.67-18.51-94.89-12.11-29.19-29.53-55.43-51.76-77.98C812.69 122.83 753 97.43 689.65 97.01c-57.48-0.37-113.15 19.84-156.87 56.96-12.04 10.22-29.52 10.22-41.55 0-39.69-33.7-88.1-53.23-140-56.48-33.72-2.11-66.75 2.76-98.17 14.49-30.17 11.26-57.44 28.29-81.05 50.59-23.88 22.56-42.64 49.21-55.76 79.23-13.62 31.15-20.43 64.29-20.23 98.49 0.43 73.58 15.61 145.75 45.1 214.51 24.65 57.48 59.55 113.16 103.72 165.5 79.11 93.73 170.22 155.74 217.48 184.35 15.33 9.28 32.51 13.92 49.69 13.92s34.36-4.64 49.68-13.91c15.12-9.15 19.95-28.83 10.8-43.95-9.15-15.12-28.83-19.95-43.95-10.8-10.2 6.17-22.87 6.17-33.08-0.01-100.31-60.74-333.81-232.01-335.45-510-0.29-49.28 20.1-96.96 55.94-130.82 35.82-33.84 82.44-50.79 131.27-47.73 38.02 2.39 73.49 16.7 102.58 41.4 36.04 30.59 88.35 30.59 124.39 0C605.94 175.8 646.32 161 688.03 161h1.19c46.24 0.31 89.89 18.94 122.91 52.45 33.82 34.32 52.23 79.58 51.85 127.45zM877.25 832l41.37-41.37c12.5-12.5 12.5-32.76 0-45.25-12.5-12.5-32.76-12.5-45.25 0L832 786.75l-41.37-41.37c-12.5-12.5-32.76-12.5-45.25 0-12.5 12.5-12.5 32.76 0 45.25L786.75 832l-41.37 41.37c-12.5 12.5-12.5 32.76 0 45.25 6.25 6.25 14.44 9.37 22.63 9.37s16.38-3.12 22.63-9.37L832 877.25l41.37 41.37c6.25 6.25 14.44 9.37 22.63 9.37s16.38-3.12 22.63-9.37c12.5-12.5 12.5-32.76 0-45.25L877.25 832z" p-id="5005"></path></svg>